:SAMPLES-PER-SECOND 30
:FULLY-SPECIFIED
:DEGREES
104
root  34.86083624 36.49987348 -14.91689457 8.522420883 -7.244850636 4.360124111
lowerback  -7.353849411 -1.349969864 -1.033059835
upperback  -3.94037056 -1.303230047 -3.375760078
thorax  -0.001212210045 -0.4973599911 -2.994750023
lowerneck  -0.4040249884 -18.625 -13.82190037
upperneck  13.40779972 -26.41200066 14.98029995
head  8.072429657 -12.4218998 4.2917099
lclavicle  0 -4.497500157e-015 -2.743230041e-014
lhumerus  -47.17630005 26.30850029 66.44259644
lradius  -0.04343606904 -6.507048965e-006 30.86429977
lwrist  4.824992743e-007 -3.790274832e-007 -26.49580002
lhand  -4.415797261e-031 -36.90259933 -10.62209988
lfingers  90 7.125020027 -90
lthumb  94.80606035 -25.4588941 101.0670124
rclavicle  0 -4.497500157e-015 -2.743230041e-014
rhumerus  -49.09569931 -28.15870094 -17.08449936
rradius  -5.16745672e-007 2.214343908e-008 99.89189911
rwrist  -7.499573258e-005 0.03438235447 -177.0850067
rhand  -1.769975617e-031 4.046840191 -6.070370197
rfingers  -90 -7.125020027 -90
rthumb  -84.41459134 -9.77646336 -60.06154169
rfemur  -13.22973251 16.37099075 11.89729214
rtibia  -1.633753777 -2.004750252 21.6940937
rfoot  0.091035299 -23.33057213 -34.66164017
rtoes  4.200275841 19.57165068 -102.365559
lfemur  -8.290555954 -17.15509033 -21.53684044
ltibia  2.719851255 -2.118284225 14.98198986
lfoot  1.210003257 -21.63688087 38.90324402
ltoes  -8.449040587 -18.19430982 -115.4417806
105
root  34.86242219 36.49976835 -14.91604452 8.515142441 -7.316818714 4.383945942
lowerback  -7.348989964 -1.346989989 -1.015319467
upperback  -3.937322855 -1.300740004 -3.382040024
thorax  -0.004833709914 -0.4965609908 -3.010979891
lowerneck  -0.2428359985 -18.69939995 -13.89850044
upperneck  13.28279972 -26.54000092 15.16009998
head  8.060959816 -12.48649979 4.34912014
lclavicle  0 -4.497500157e-015 -2.743230041e-014
lhumerus  -47.11539841 26.20050049 66.49469757
lradius  -0.04364952445 -6.507048965e-006 30.8512001
lwrist  4.824992743e-007 -3.790274832e-007 -26.39660072
lhand  -0 -36.6908989 -10.49639988
lfingers  90 7.125020027 -90
lthumb  94.68093663 -25.34284977 100.8294681
rclavicle  0 -4.497500157e-015 -2.743230041e-014
rhumerus  -48.47119904 -28.31609917 -16.69099998
rradius  -5.16745672e-007 2.214343908e-008 99.12809753
rwrist  -7.499573258e-005 0.03438235447 -176.9700012
rhand  -1.769624403e-031 3.882790089 -6.325839996
rfingers  -90 -7.125020027 -90
rthumb  -84.58394934 -9.546101651 -60.24363155
rfemur  -13.22962475 16.42124557 11.86383057
rtibia  -1.64210403 -2.022348166 21.68860626
rfoot  0.0967791453 -23.3355999 -34.65174484
rtoes  4.170628066 19.57775223 -102.2770676
lfemur  -8.271565437 -17.10918808 -21.57924652
ltibia  2.740520716 -2.143987656 14.95886517
lfoot  1.221137524 -21.58288002 38.93018723
ltoes  -8.445724181 -18.19580829 -115.4311598
106
root  34.86504142 36.50117108 -14.91550986 8.536967278 -7.400718212 4.404463768
lowerback  -7.324960232 -1.334589958 -1.014749408
upperback  -3.93263936 -1.286129951 -3.391060114
thorax  -0.004959779792 -0.4928023815 -3.019200087
lowerneck  -0.04096889868 -18.7833004 -13.94699955
upperneck  13.08870029 -26.67790031 15.34060001
head  8.017729759 -12.5607996 4.407599926
lclavicle  0 -4.497500157e-015 -2.743230041e-014
lhumerus  -47.04579926 26.08069992 66.56719971
lradius  -0.04385860264 -6.507048965e-006 30.83259964
lwrist  4.824992743e-007 -3.790274832e-007 -26.34140015
lhand  -0 -36.67699814 -10.53429985
lfingers  90 7.125020027 -90
lthumb  94.68231268 -25.38048483 100.8179438
rclavicle  0 -4.497500157e-015 -2.743230041e-014
rhumerus  -47.97470093 -28.55629921 -16.27160263
rradius  -5.16745672e-007 2.214343908e-008 98.38860321
rwrist  -7.499573258e-005 0.03438235447 -176.7830048
rhand  -1.770470015e-031 4.267010212 -6.295259953
rfingers  -90 -7.125020027 -90
rthumb  -84.47419737 -9.593621477 -59.86533703
rfemur  -13.27108383 16.41734123 11.82162476
rtibia  -1.648661137 -2.057880402 21.69352913
rfoot  0.1088286638 -23.37492371 -34.57496262
rtoes  4.166442168 19.57861003 -102.2645758
lfemur  -8.339915276 -17.12462044 -21.58877182
ltibia  2.712277174 -2.193016529 15.01122856
lfoot  1.202845693 -21.50926971 38.92411804
ltoes  -8.424160971 -18.20553351 -115.3621235
107
root  34.86781083 36.50236355 -14.9153747 8.550750732 -7.484793186 4.42312336
lowerback  -7.292089939 -1.334980011 -1.013039708
upperback  -3.928932667 -1.286720037 -3.41704011
thorax  -0.02809960023 -0.4902260005 -3.0464499
lowerneck  0.1344649941 -18.83340073 -13.87889957
upperneck  12.91860008 -26.76210022 15.48509979
head  7.957379818 -12.60319996 4.450250149
lclavicle  0 -4.497500157e-015 -2.743230041e-014
lhumerus  -47.02619934 26.05559921 66.54250336
lradius  -0.04406316951 -6.507048965e-006 30.8085022
lwrist  4.824992743e-007 -3.790274832e-007 -26.36599922
lhand  -0 -36.73279953 -10.58670044
lfingers  90 7.125020027 -90
lthumb  94.7192391 -25.42999215 100.8822563
rclavicle  0 -4.497500157e-015 -2.743230041e-014
rhumerus  -47.45230103 -28.84059906 -15.92040062
rradius  -5.16745672e-007 2.214343908e-008 97.55079651
rwrist  -7.499573258e-005 0.03438235447 -176.8970032
rhand  -1.770835311e-031 4.422589779 -6.354859829
rfingers  -90 -7.125020027 -90
rthumb  -84.46611002 -9.550791987 -59.71824268
rfemur  -13.33016586 16.45022392 11.7875433
rtibia  -1.66436255 -2.066532135 21.73320198
rfoot  0.1078200489 -23.36832237 -34.52463913
rtoes  4.173394412 19.57718483 -102.2853233
lfemur  -8.307022095 -17.20630074 -21.6489296
ltibia  2.745617867 -2.263966799 14.95932388
lfoot  1.210731626 -21.33618736 39.04227829
ltoes  -8.468183634 -18.18564609 -115.5031034
